<svg width="24" height="19" viewBox="0 0 24 19" fill="none" xmlns="http://www.w3.org/2000/svg">
<path fill-rule="evenodd" clip-rule="evenodd" d="M0.156959 0.671472C0.268144 0.56161 0.418152 0.5 0.574459 0.5C0.730766 0.5 0.880774 0.56161 0.991959 0.671472L9.82096 9.09947C9.87733 9.14975 9.92244 9.21138 9.95332 9.28032C9.98421 9.34925 10.0002 9.42393 10.0002 9.49947C10.0002 9.57501 9.98421 9.64969 9.95332 9.71863C9.92244 9.78756 9.87733 9.84919 9.82096 9.89947L1.02096 18.3275C0.909504 18.4367 0.759997 18.4984 0.603959 18.4995C0.447836 18.4988 0.298177 18.437 0.186959 18.3275C0.130588 18.2772 0.085481 18.2156 0.0545959 18.1466C0.0237107 18.0777 0.00774466 18.003 0.00774466 17.9275C0.00774466 17.8519 0.0237107 17.7773 0.0545959 17.7083C0.085481 17.6394 0.130588 17.5778 0.186959 17.5275L8.53796 9.49847L0.154959 1.46947C0.0550187 1.36031 -0.000246539 1.21758 0.000123921 1.06958C0.00049438 0.921584 0.0564735 0.779129 0.156959 0.670472V0.671472ZM14.157 0.671472C14.2681 0.56161 14.4182 0.5 14.5745 0.5C14.7308 0.5 14.8808 0.56161 14.992 0.671472L23.821 9.09947C23.8773 9.14975 23.9224 9.21138 23.9533 9.28032C23.9842 9.34925 24.0002 9.42393 24.0002 9.49947C24.0002 9.57501 23.9842 9.64969 23.9533 9.71863C23.9224 9.78756 23.8773 9.84919 23.821 9.89947L15.021 18.3275C14.9095 18.4367 14.76 18.4984 14.604 18.4995C14.4478 18.4988 14.2982 18.437 14.187 18.3275C14.1306 18.2772 14.0855 18.2156 14.0546 18.1466C14.0237 18.0777 14.0077 18.003 14.0077 17.9275C14.0077 17.8519 14.0237 17.7773 14.0546 17.7083C14.0855 17.6394 14.1306 17.5778 14.187 17.5275L22.538 9.49847L14.155 1.46947C14.055 1.36031 13.9998 1.21758 14.0001 1.06958C14.0005 0.921584 14.0565 0.779129 14.157 0.670472V0.671472Z" fill="black"/>
</svg>
