<?xml version="1.0" encoding="UTF-8"?>
<svg width="31px" height="31px" viewBox="0 0 31 31" version="1.1" xmlns="http://www.w3.org/2000/svg" xmlns:xlink="http://www.w3.org/1999/xlink">
    <!-- Generator: sketchtool 52.5 (67469) - http://www.bohemiancoding.com/sketch -->
    <title>E75EE83C-3984-418D-8829-861B8E3C9CD3</title>
    <desc>Created with sketchtool.</desc>
    <g id="Home-page---desktop" stroke="none" stroke-width="1" fill="none" fill-rule="evenodd">
        <g id="Desktop---home-page" transform="translate(-486.000000, -438.000000)" fill="#000000">
            <g id="Group-16" transform="translate(330.000000, 297.000000)">
                <g id="Search-icon" transform="translate(156.000000, 141.000000)">
                    <path d="M11.26999,0.000160200136 C5.0538899,0.000160200136 0,5.0472655 0,11.2550208 C0,17.4627761 5.0538899,22.5098814 11.26999,22.5098814 C14.2370348,22.5098814 16.925438,21.3490712 18.9306316,19.5061288 L30.319329,30.8795375 C30.399224,30.9593252 30.5198484,31 30.5997433,31 C30.6796382,31 30.8002627,30.9593252 30.8801576,30.8795375 C31.0399475,30.7199622 31.0399475,30.4790372 30.8801576,30.3194778 L19.4914601,18.9036161 C21.3760213,16.9011144 22.4992505,14.2181626 22.4992505,11.2532586 C22.5384147,5.0471053 17.4862666,0 11.2701665,0 L11.26999,0.000160200136 Z M18.769013,18.5437265 C18.7282835,18.5437265 18.689118,18.5844013 18.6483885,18.6235142 C18.607659,18.664189 18.607659,18.7033019 18.5684936,18.7439767 C16.6839325,20.586919 14.1161618,21.7070384 11.26999,21.7070384 C5.49423041,21.7070384 0.802077432,17.0215849 0.802077432,11.2547805 C0.802077432,5.48677457 5.49382937,0.800920582 11.26999,0.800920582 C17.0441454,0.800920582 21.7379026,5.48637407 21.7379026,11.2547805 C21.7363361,14.0974118 20.6131093,16.6615351 18.7692937,18.5434862 L18.769013,18.5437265 Z" id="Shape" fill-rule="nonzero"></path>
                    <path d="M10.4115057,3 C10.1639603,3 10,3.16396033 10,3.4115057 C10,3.65905107 10.1639603,3.8230114 10.4115057,3.8230114 C15.2257109,3.8230114 19.1769886,7.73231554 19.1769886,12.5884943 C19.1769886,12.8360397 19.3409489,13 19.5884943,13 C19.8360397,13 20,12.8360397 20,12.5884943 C19.9983927,7.32080984 15.6775441,3 10.4115057,3 Z" id="Path"></path>
                </g>
            </g>
        </g>
    </g>
</svg>